<svg xmlns="http://www.w3.org/2000/svg" width="460" height="159" viewBox="0 0 460 159">
  <defs>
    <clipPath id="barClip">
      <rect x="20" y="55" width="420" height="12" rx="6"/>
    </clipPath>
  </defs>
  <rect width="460" height="159" rx="10" fill="#141321"/>
  <text x="20" y="35" fill="#f8d847" font-family="Arial" font-size="16" font-weight="bold">💻 Top Languages</text>

  <!-- Фон полосы -->
  <rect x="20" y="55" width="420" height="12" rx="6" fill="#2a283e"/>

  <!-- Цветные части (обрезанные) -->
  <rect x="20.0" y="55" width="368.4" height="12" fill="#3572A5" clip-path="url(#barClip)"/><rect x="388.4" y="55" width="15.9" height="12" fill="#00ADD8" clip-path="url(#barClip)"/><rect x="404.3" y="55" width="14.2" height="12" fill="#3178c6" clip-path="url(#barClip)"/><rect x="418.4" y="55" width="8.7" height="12" fill="#e34c26" clip-path="url(#barClip)"/><rect x="427.2" y="55" width="4.8" height="12" fill="#663399" clip-path="url(#barClip)"/><rect x="432.0" y="55" width="4.7" height="12" fill="#6E4C13" clip-path="url(#barClip)"/><rect x="436.7" y="55" width="2.0" height="12" fill="#384d54" clip-path="url(#barClip)"/><rect x="438.7" y="55" width="2.0" height="12" fill="#f1e05a" clip-path="url(#barClip)"/>

  <!-- Рамка поверх -->
  <rect x="20" y="55" width="420" height="12" rx="6" fill="none" stroke="#ffffff33" stroke-width="1"/>

  <!-- Легенда -->
  
    <circle cx="25" cy="85" r="4" fill="#3572A5"/>
    <text x="33" y="89" fill="white" font-family="Arial" font-size="11">Python 87.7%</text>
    <circle cx="122" cy="85" r="4" fill="#00ADD8"/>
    <text x="130" y="89" fill="white" font-family="Arial" font-size="11">Go 3.8%</text>
    <circle cx="191" cy="85" r="4" fill="#3178c6"/>
    <text x="199" y="89" fill="white" font-family="Arial" font-size="11">TypeScript 3.4%</text>
    <circle cx="316" cy="85" r="4" fill="#e34c26"/>
    <text x="324" y="89" fill="white" font-family="Arial" font-size="11">HTML 2.1%</text>
    <circle cx="25" cy="105" r="4" fill="#663399"/>
    <text x="33" y="109" fill="white" font-family="Arial" font-size="11">CSS 1.1%</text>
    <circle cx="101" cy="105" r="4" fill="#6E4C13"/>
    <text x="109" y="109" fill="white" font-family="Arial" font-size="11">Assembly 1.1%</text>
    <circle cx="212" cy="105" r="4" fill="#384d54"/>
    <text x="220" y="109" fill="white" font-family="Arial" font-size="11">Dockerfile 0.4%</text>
    <circle cx="25" cy="125" r="4" fill="#f1e05a"/>
    <text x="33" y="129" fill="white" font-family="Arial" font-size="11">JavaScript 0.3%</text>
</svg>