<svg xmlns="http://www.w3.org/2000/svg" width="460" height="159" viewBox="0 0 460 159">
  <rect width="460" height="159" rx="10" fill="#141321"/>
  <text x="20" y="35" fill="#f8d847" font-family="Arial" font-size="16" font-weight="bold">💻 Top Languages</text>
  <rect x="20" y="55" width="420" height="12" rx="6" fill="#2a283e"/>
  <rect x="20.0" y="55" width="361.9" height="12" fill="#3572A5"/><rect x="381.9" y="55" width="21.0" height="12" fill="#e34c26"/><rect x="402.9" y="55" width="11.4" height="12" fill="#6E4C13"/><rect x="414.3" y="55" width="9.0" height="12" fill="#663399"/><rect x="423.3" y="55" width="6.8" height="12" fill="#3178c6"/><rect x="430.2" y="55" width="4.6" height="12" fill="#00ADD8"/><rect x="434.7" y="55" width="2.9" height="12" fill="#f1e05a"/><rect x="437.6" y="55" width="2.4" height="12" fill="#384d54"/>
  <rect x="20" y="55" width="420" height="12" rx="6" fill="none" stroke="#ffffff22" stroke-width="1"/>
  
    <circle cx="25" cy="85" r="4" fill="#3572A5"/>
    <text x="33" y="89" fill="white" font-family="Arial" font-size="11">Python 86.2%</text>
    <circle cx="122" cy="85" r="4" fill="#e34c26"/>
    <text x="130" y="89" fill="white" font-family="Arial" font-size="11">HTML 5.0%</text>
    <circle cx="205" cy="85" r="4" fill="#6E4C13"/>
    <text x="213" y="89" fill="white" font-family="Arial" font-size="11">Assembly 2.7%</text>
    <circle cx="316" cy="85" r="4" fill="#663399"/>
    <text x="324" y="89" fill="white" font-family="Arial" font-size="11">CSS 2.1%</text>
    <circle cx="25" cy="105" r="4" fill="#3178c6"/>
    <text x="33" y="109" fill="white" font-family="Arial" font-size="11">TypeScript 1.6%</text>
    <circle cx="150" cy="105" r="4" fill="#00ADD8"/>
    <text x="158" y="109" fill="white" font-family="Arial" font-size="11">Go 1.1%</text>
    <circle cx="219" cy="105" r="4" fill="#f1e05a"/>
    <text x="227" y="109" fill="white" font-family="Arial" font-size="11">JavaScript 0.7%</text>
    <circle cx="25" cy="125" r="4" fill="#384d54"/>
    <text x="33" y="129" fill="white" font-family="Arial" font-size="11">Dockerfile 0.6%</text>
</svg>