<svg xmlns="http://www.w3.org/2000/svg" width="460" height="159" viewBox="0 0 460 159">
  <defs>
    <clipPath id="barClip">
      <rect x="20" y="55" width="420" height="12" rx="6"/>
    </clipPath>
  </defs>
  <rect width="460" height="159" rx="10" fill="#141321"/>
  <text x="20" y="35" fill="#f8d847" font-family="Arial" font-size="16" font-weight="bold">💻 Top Languages</text>

  <!-- Фон полосы -->
  <rect x="20" y="55" width="420" height="12" rx="6" fill="#2a283e"/>

  <!-- Цветные части (обрезанные) -->
  <rect x="20.0" y="55" width="379.7" height="12" fill="#3572A5" clip-path="url(#barClip)"/><rect x="399.7" y="55" width="14.4" height="12" fill="#e34c26" clip-path="url(#barClip)"/><rect x="414.1" y="55" width="7.8" height="12" fill="#6E4C13" clip-path="url(#barClip)"/><rect x="422.0" y="55" width="6.2" height="12" fill="#663399" clip-path="url(#barClip)"/><rect x="428.1" y="55" width="4.7" height="12" fill="#3178c6" clip-path="url(#barClip)"/><rect x="432.8" y="55" width="3.1" height="12" fill="#00ADD8" clip-path="url(#barClip)"/><rect x="435.9" y="55" width="2.1" height="12" fill="#384d54" clip-path="url(#barClip)"/><rect x="438.0" y="55" width="2.0" height="12" fill="#f1e05a" clip-path="url(#barClip)"/>

  <!-- Рамка поверх -->
  <rect x="20" y="55" width="420" height="12" rx="6" fill="none" stroke="#ffffff33" stroke-width="1"/>

  <!-- Легенда -->
  
    <circle cx="25" cy="85" r="4" fill="#3572A5"/>
    <text x="33" y="89" fill="white" font-family="Arial" font-size="11">Python 90.4%</text>
    <circle cx="122" cy="85" r="4" fill="#e34c26"/>
    <text x="130" y="89" fill="white" font-family="Arial" font-size="11">HTML 3.4%</text>
    <circle cx="205" cy="85" r="4" fill="#6E4C13"/>
    <text x="213" y="89" fill="white" font-family="Arial" font-size="11">Assembly 1.9%</text>
    <circle cx="316" cy="85" r="4" fill="#663399"/>
    <text x="324" y="89" fill="white" font-family="Arial" font-size="11">CSS 1.5%</text>
    <circle cx="25" cy="105" r="4" fill="#3178c6"/>
    <text x="33" y="109" fill="white" font-family="Arial" font-size="11">TypeScript 1.1%</text>
    <circle cx="150" cy="105" r="4" fill="#00ADD8"/>
    <text x="158" y="109" fill="white" font-family="Arial" font-size="11">Go 0.7%</text>
    <circle cx="219" cy="105" r="4" fill="#384d54"/>
    <text x="227" y="109" fill="white" font-family="Arial" font-size="11">Dockerfile 0.5%</text>
    <circle cx="25" cy="125" r="4" fill="#f1e05a"/>
    <text x="33" y="129" fill="white" font-family="Arial" font-size="11">JavaScript 0.5%</text>
</svg>