<svg xmlns="http://www.w3.org/2000/svg" width="460" height="290" viewBox="0 0 460 290">
  <rect width="460" height="290" rx="10" fill="#141321"/>
  <text x="20" y="25" fill="#f8d847" font-family="Arial" font-size="16" font-weight="bold">💻 Top Languages</text>
  
  <rect x="20" y="35" width="420" height="18" rx="3" fill="#2a283e"/>
  <rect x="20" y="35" width="357.84000000000003" height="18" rx="3" fill="#3572A5"/>
  <text x="25" y="48" fill="white" font-family="Arial" font-size="11">Python — 85.2%</text>
  <rect x="20" y="65" width="420" height="18" rx="3" fill="#2a283e"/>
  <rect x="20" y="65" width="20.16" height="18" rx="3" fill="#e34c26"/>
  <text x="25" y="78" fill="white" font-family="Arial" font-size="11">HTML — 4.8%</text>
  <rect x="20" y="95" width="420" height="18" rx="3" fill="#2a283e"/>
  <rect x="20" y="95" width="10.920000000000002" height="18" rx="3" fill="#6E4C13"/>
  <text x="25" y="108" fill="white" font-family="Arial" font-size="11">Assembly — 2.6%</text>
  <rect x="20" y="125" width="420" height="18" rx="3" fill="#2a283e"/>
  <rect x="20" y="125" width="8.82" height="18" rx="3" fill="#663399"/>
  <text x="25" y="138" fill="white" font-family="Arial" font-size="11">CSS — 2.1%</text>
  <rect x="20" y="155" width="420" height="18" rx="3" fill="#2a283e"/>
  <rect x="20" y="155" width="8.4" height="18" rx="3" fill="#89e051"/>
  <text x="25" y="168" fill="white" font-family="Arial" font-size="11">Shell — 2.0%</text>
  <rect x="20" y="185" width="420" height="18" rx="3" fill="#2a283e"/>
  <rect x="20" y="185" width="6.720000000000001" height="18" rx="3" fill="#3178c6"/>
  <text x="25" y="198" fill="white" font-family="Arial" font-size="11">TypeScript — 1.6%</text>
  <rect x="20" y="215" width="420" height="18" rx="3" fill="#2a283e"/>
  <rect x="20" y="215" width="4.2" height="18" rx="3" fill="#00ADD8"/>
  <text x="25" y="228" fill="white" font-family="Arial" font-size="11">Go — 1.0%</text>
  <rect x="20" y="245" width="420" height="18" rx="3" fill="#2a283e"/>
  <rect x="20" y="245" width="2.94" height="18" rx="3" fill="#f1e05a"/>
  <text x="25" y="258" fill="white" font-family="Arial" font-size="11">JavaScript — 0.7%</text>
</svg>